<svg xmlns="http://www.w3.org/2000/svg" style="display: none;">
  <symbol id="icon-1" viewBox="0 0 100 100"><path fill="%23c9a96e" d="M50 0C50 25 75 50 100 50C75 50 50 75 50 100C50 75 25 50 0 50C25 50 50 25 50 0Z" opacity="0.03"/></symbol><symbol id="icon-2" viewBox="0 0 100 100">
        <a href="/majlis.html"><polygon points="0,50 50,50 50,100 0,100" fill="rgba(0,0,0,0)" pointer-events="visiblePainted" class="cursor-pointer" @mouseenter="hoverTarget = 'majlis'" @mouseleave="hoverTarget = null" /></a>
        <a href="/kitchen.html"><polygon points="40,25 65,25 65,45 40,45" fill="rgba(0,0,0,0)" pointer-events="visiblePainted" class="cursor-pointer" @mouseenter="hoverTarget = 'kitchen'" @mouseleave="hoverTarget = null" /></a>
        <a href="/cot.html"><polygon points="65,55 75,55 75,70 65,70" fill="rgba(0,0,0,0)" pointer-events="visiblePainted" class="cursor-pointer" @mouseenter="hoverTarget = 'cot'" @mouseleave="hoverTarget = null" /></a>
        <a href="/bedroom.html"><polygon points="75,50 100,50 100,80 75,80" fill="rgba(0,0,0,0)" pointer-events="visiblePainted" class="cursor-pointer" @mouseenter="hoverTarget = 'bedroom'" @mouseleave="hoverTarget = null" /></a>
        <a href="/almirah.html"><polygon points="62,18 74,18 74,50 62,50" fill="rgba(0,0,0,0)" pointer-events="visiblePainted" class="cursor-pointer" @mouseenter="hoverTarget = 'almirah'" @mouseleave="hoverTarget = null" /></a>
      </symbol><symbol id="icon-3" viewBox="0 0 24 24"><path d="M12 5v14M5 12l7 7 7-7"/></symbol><symbol id="icon-4" viewBox="0 0 24 24"><path fill=%22%23b45309%22 d=%22M60 0C60 30 90 60 120 60C90 60 60 90 60 120C60 90 30 60 0 60C30 60 60 30 60 0Z%22 opacity=%220.018%22/></symbol><symbol id="icon-5" viewBox="0 0 24 24"><path d="M5 12h14M12 5l7 7-7 7"/></symbol><symbol id="icon-6" viewBox="0 0 24 24"><path d="M5 12h14M12 5l7 7-7 7"/></symbol><symbol id="icon-7" viewBox="0 0 24 24"><path d="M21 10c0 7-9 13-9 13s-9-6-9-13a9 9 0 0 1 18 0z"/><circle cx="12" cy="10" r="3"/></symbol><symbol id="icon-8" viewBox="0 0 24 24">
                <line x1="12" y1="5" x2="12" y2="19"/><line x1="5" y1="12" x2="19" y2="12"/>
              </symbol><symbol id="icon-9" viewBox="0 0 24 24"><path d="M5 12h14M12 5l7 7-7 7"/></symbol><symbol id="icon-10" viewBox="0 0 24 24">
        <path d="M17.472 14.382c-.297-.149-1.758-.867-2.03-.967-.273-.099-.471-.148-.67.15-.197.297-.767.966-.94 1.164-.173.199-.347.223-.644.075-.297-.15-1.255-.463-2.39-1.475-.883-.788-1.48-1.761-1.653-2.059-.173-.297-.018-.458.13-.606.134-.133.298-.347.446-.52.149-.174.198-.298.298-.497.099-.198.05-.371-.025-.52-.075-.149-.669-1.612-.916-2.207-.242-.579-.487-.5-.669-.51-.173-.008-.371-.01-.57-.01-.198 0-.52.074-.792.372-.272.297-1.04 1.016-1.04 2.479 0 1.462 1.065 2.875 1.213 3.074.149.198 2.096 3.2 5.077 4.487.709.306 1.262.489 1.694.625.712.227 1.36.195 1.871.118.571-.085 1.758-.719 2.006-1.413.248-.694.248-1.289.173-1.413-.074-.124-.272-.198-.57-.347m-5.421 7.403h-.004a9.87 9.87 0 01-5.031-1.378l-.361-.214-3.741.982.998-3.648-.235-.374a9.86 9.86 0 01-1.51-5.26c.001-5.45 4.436-9.884 9.888-9.884 2.64 0 5.122 1.03 6.988 2.898a9.825 9.825 0 012.893 6.994c-.003 5.45-4.437 9.884-9.885 9.884m8.413-18.297A11.815 11.815 0 0012.05 0C5.495 0 .16 5.335.157 11.892c0 2.096.547 4.142 1.588 5.945L.057 24l6.305-1.654a11.882 11.882 0 005.683 1.448h.005c6.554 0 11.89-5.335 11.893-11.893a11.821 11.821 0 00-3.48-8.413z"/>
      </symbol><symbol id="icon-11" viewBox="0 0 24 24"><path d="M20 6L9 17l-5-5"/></symbol>
</svg>